HIERARCHY
ROOT Hips
{
	OFFSET 0.000000 0.000000 0.000000
	CHANNELS 6 Xposition Yposition Zposition Zrotation Yrotation Xrotation 
	JOINT LHipJoint
	{
		OFFSET 0.000000 0.000000 0.000000
		CHANNELS 3 Zrotation Yrotation Xrotation
		JOINT LeftUpLeg
		{
			OFFSET 1.363060 -1.794630 0.839290
			CHANNELS 3 Zrotation Yrotation Xrotation
			JOINT LeftLeg
			{
				OFFSET 2.448110 -6.726130 0.000000
				CHANNELS 3 Zrotation Yrotation Xrotation
				JOINT LeftFoot
				{
					OFFSET 2.562200 -7.039590 0.000000
					CHANNELS 3 Zrotation Yrotation Xrotation
					JOINT LeftToeBase
					{
						OFFSET 0.157640 -0.433110 2.322550
						CHANNELS 3 Zrotation Yrotation Xrotation
						End Site
						{
							OFFSET 0.000000 0.000000 0.000000
						}
					}
				}
			}
		}
	}
	JOINT RHipJoint
	{
		OFFSET 0.000000 0.000000 0.000000
		CHANNELS 3 Zrotation Yrotation Xrotation
		JOINT RightUpLeg
		{
			OFFSET -1.305520 -1.794630 0.839290
			CHANNELS 3 Zrotation Yrotation Xrotation
			JOINT RightLeg
			{
				OFFSET -2.542530 -6.985550 0.000000
				CHANNELS 3 Zrotation Yrotation Xrotation
				JOINT RightFoot
				{
					OFFSET -2.568260 -7.056230 0.000000
					CHANNELS 3 Zrotation Yrotation Xrotation
					JOINT RightToeBase
					{
						OFFSET -0.164730 -0.452590 2.363150
						CHANNELS 3 Zrotation Yrotation Xrotation
						End Site
						{
							OFFSET 0.000000 0.000000 0.000000
						}
					}
				}
			}
		}
	}
	JOINT LowerBack
	{
		OFFSET 0.000000 0.000000 0.000000
		CHANNELS 3 Zrotation Yrotation Xrotation
		JOINT Spine
		{
			OFFSET 0.028270 2.035590 -0.193380
			CHANNELS 3 Zrotation Yrotation Xrotation
			JOINT Spine1
			{
				OFFSET 0.056720 2.048850 -0.042750
				CHANNELS 3 Zrotation Yrotation Xrotation
				JOINT Neck
				{
					OFFSET 0.000000 0.000000 0.000000
					CHANNELS 3 Zrotation Yrotation Xrotation
					JOINT Neck1
					{
						OFFSET -0.054170 1.746240 0.172020
						CHANNELS 3 Zrotation Yrotation Xrotation
						JOINT Head
						{
							OFFSET 0.104070 1.761360 -0.123970
							CHANNELS 3 Zrotation Yrotation Xrotation
							End Site
							{
								OFFSET 0.000000 0.000000 0.000000
							}
						}
					}
				}
				JOINT LeftShoulder
				{
					OFFSET 0.000000 0.000000 0.000000
					CHANNELS 3 Zrotation Yrotation Xrotation
					JOINT LeftArm
					{
						OFFSET 3.362410 1.200890 -0.311210
						CHANNELS 3 Zrotation Yrotation Xrotation
						JOINT LeftForeArm
						{
							OFFSET 4.983000 -0.000000 -0.000000
							CHANNELS 3 Zrotation Yrotation Xrotation
							JOINT LeftHand
							{
								OFFSET 3.483560 -0.000000 -0.000000
								CHANNELS 3 Zrotation Yrotation Xrotation
								JOINT LeftFingerBase
								{
									OFFSET 0.000000 0.000000 0.000000
									CHANNELS 3 Zrotation Yrotation Xrotation
									JOINT LeftHandIndex1
									{
										OFFSET 0.715260 -0.000000 -0.000000
										CHANNELS 3 Zrotation Yrotation Xrotation
										End Site
										{
											OFFSET 0.000000 0.000000 0.000000
										}
									}
								}
								JOINT LThumb
								{
									OFFSET 0.000000 0.000000 0.000000
									CHANNELS 3 Zrotation Yrotation Xrotation
									End Site
									{
										OFFSET 0.000000 0.000000 0.000000
									}
								}
							}
						}
					}
				}
				JOINT RightShoulder
				{
					OFFSET 0.000000 0.000000 0.000000
					CHANNELS 3 Zrotation Yrotation Xrotation
					JOINT RightArm
					{
						OFFSET -3.136600 1.374050 -0.404650
						CHANNELS 3 Zrotation Yrotation Xrotation
						JOINT RightForeArm
						{
							OFFSET -5.241900 -0.000000 -0.000000
							CHANNELS 3 Zrotation Yrotation Xrotation
							JOINT RightHand
							{
								OFFSET -3.444170 -0.000000 -0.000000
								CHANNELS 3 Zrotation Yrotation Xrotation
								JOINT RightFingerBase
								{
									OFFSET 0.000000 0.000000 0.000000
									CHANNELS 3 Zrotation Yrotation Xrotation
									JOINT RightHandIndex1
									{
										OFFSET -0.622530 -0.000000 -0.000000
										CHANNELS 3 Zrotation Yrotation Xrotation
										End Site
										{
											OFFSET 0.000000 0.000000 0.000000
										}
									}
								}
								JOINT RThumb
								{
									OFFSET 0.000000 0.000000 0.000000
									CHANNELS 3 Zrotation Yrotation Xrotation
									End Site
									{
										OFFSET 0.000000 0.000000 0.000000
									}
								}
							}
						}
					}
				}
			}
		}
	}
}
MOTION
Frames: 5
Frame Time: 0.041667
-27.276810 16.748859 4.611907 138.162615 88.595361 154.945354 -9.544962 0.022524 4.264992 -6.930487 -5.502793 -40.447286 -2.124097 -0.495274 7.825914 0.644600 5.800751 10.700507 2.454200 -0.000000 -36.913100 9.832755 -3.066658 -1.362259 5.175737 -8.368561 3.110535 1.731256 -0.472770 14.257775 -1.358652 -6.454642 -5.295699 -0.552900 -0.000000 -70.299200 -1.957491 3.614136 -2.891030 -1.601215 3.626377 -3.570024 -5.210579 3.539191 0.753519 15.865370 -7.157532 -7.383755 0.000000 0.000000 0.000000 0.000000 0.000000 0.000000 -7.094406 10.024897 0.927628 -65.902046 7.424273 -10.891803 -4.084058 -15.744038 0.006586 -0.500264 -4.134239 0.014361 -0.097299 -0.063063 -0.000000 0.000000 0.000000 0.000000 0.000000 0.000000 0.000000 19.290533 -2.231676 2.102000 59.206782 12.700651 13.909292 2.818431 37.204347 -0.012046 -5.368854 -1.433539 0.064523 0.139284 -0.111186 0.000000 0.000000 0.000000 0.000000 0.000000 0.000000 0.000000 
-27.127623 16.775398 4.576145 130.536146 88.411598 147.206923 -9.402005 0.160785 4.281180 -7.315357 -5.976303 -39.937473 -2.117587 -0.446499 8.327091 0.669312 5.972454 10.697486 2.502600 0.000000 -36.149100 10.057987 -3.048889 -1.389833 4.485098 -8.294454 2.720789 1.514055 -0.709764 16.016218 -1.355337 -6.761849 -3.776742 -0.775600 0.000000 -72.790700 -2.347240 3.571951 -2.886563 -1.688474 3.610994 -3.577833 -5.242420 3.522226 0.733989 15.960531 -7.228852 -7.391872 0.000000 0.000000 0.000000 0.000000 0.000000 0.000000 -6.962142 9.839367 0.921416 -65.775288 7.199680 -11.201391 -4.116875 -15.228369 0.006864 -0.380599 -4.179006 0.010262 -0.098147 -0.062024 -0.000000 0.000000 0.000000 0.000000 0.000000 0.000000 0.000000 19.426803 -2.358674 2.092733 59.710221 12.227496 13.661165 2.832979 36.460027 -0.012019 -5.459814 -1.427735 0.065404 0.138623 -0.108980 0.000000 0.000000 0.000000 0.000000 0.000000 0.000000 0.000000 
-26.979501 16.803756 4.538281 125.545989 88.181875 142.097805 -9.281437 0.277342 4.293684 -7.695834 -6.440281 -39.391889 -2.118079 -0.405813 8.816020 0.687601 6.082368 10.520653 2.512500 0.000000 -35.314600 10.267597 -3.034565 -1.424413 3.817853 -8.264627 2.205335 1.289353 -0.957908 17.963574 -1.354505 -7.047611 -2.113432 -1.016200 -0.000000 -74.867100 -2.705087 3.525725 -2.869730 -1.765868 3.589577 -3.582936 -5.266028 3.499110 0.713163 16.012103 -7.298219 -7.393430 0.000000 0.000000 0.000000 0.000000 0.000000 0.000000 -6.855564 9.628273 0.915206 -65.676707 6.924385 -11.474717 -4.146178 -14.685641 0.007131 -0.267525 -4.230910 0.006263 -0.098785 -0.060621 -0.000000 0.000000 0.000000 0.000000 0.000000 0.000000 0.000000 19.493911 -2.489870 2.081838 60.243228 11.724762 13.377206 2.845058 35.681005 -0.012025 -5.557480 -1.442778 0.067383 0.137859 -0.106519 0.000000 0.000000 0.000000 0.000000 0.000000 0.000000 0.000000 
-26.832828 16.833486 4.498446 122.071230 87.940032 138.498399 -9.180667 0.377372 4.300452 -8.074487 -6.872320 -38.794923 -2.125826 -0.375000 9.257755 0.701523 6.147509 10.190953 2.491100 0.000000 -34.419200 10.462471 -3.018033 -1.463060 3.175027 -8.270598 1.563746 1.056222 -1.209997 20.090676 -1.359701 -7.312437 -0.318788 -1.269500 0.000000 -76.348100 -3.028309 3.482034 -2.841455 -1.834042 3.568474 -3.585175 -5.282020 3.476423 0.692681 16.022558 -7.360066 -7.387976 0.000000 0.000000 0.000000 0.000000 0.000000 0.000000 -6.774201 9.408616 0.908446 -65.605729 6.587931 -11.686897 -4.170662 -14.122155 0.007380 -0.152296 -4.284257 0.002065 -0.099169 -0.058861 -0.000000 0.000000 0.000000 0.000000 0.000000 0.000000 0.000000 19.496237 -2.615211 2.069726 60.796362 11.194157 13.070769 2.854916 34.879884 -0.012053 -5.652074 -1.481868 0.070559 0.136970 -0.103803 0.000000 0.000000 0.000000 0.000000 0.000000 0.000000 0.000000 
-26.687844 16.864180 4.457268 119.251293 87.698346 135.544620 -9.092433 0.466493 4.299038 -8.464837 -7.260834 -38.123013 -2.142474 -0.356693 9.609477 0.713604 6.193951 9.745662 2.451200 -0.000000 -33.481000 10.650098 -2.992269 -1.504101 2.543728 -8.309677 0.801324 0.814979 -1.458857 22.382771 -1.374833 -7.557136 1.574346 -1.527900 0.000000 -77.069400 -3.327879 3.443685 -2.800529 -1.895974 3.551134 -3.585231 -5.291640 3.457611 0.670080 16.002126 -7.416597 -7.374377 0.000000 0.000000 0.000000 0.000000 0.000000 0.000000 -6.709413 9.164705 0.901733 -65.570040 6.214725 -11.881412 -4.190637 -13.562564 0.007585 -0.044125 -4.328389 -0.001933 -0.099309 -0.056785 -0.000000 0.000000 0.000000 0.000000 0.000000 0.000000 0.000000 19.451109 -2.736034 2.060156 61.354693 10.647885 12.770564 2.863554 34.065101 -0.012089 -5.733678 -1.548326 0.075032 0.135973 -0.100851 0.000000 0.000000 0.000000 0.000000 0.000000 0.000000 0.000000 
